# xmcd CD database file
# Copyright (C) 1996 Ti Kan
#
# Track frame offsets:
#  200
#  16117
#  31515
#  47317
#  62995
#  78880
#  91255
#  111087
#  131077
#  146502
#  167130
#
# Disc length: 2414 seconds
#
# Revision: 1
# Processed by: cddbd v1.4b41PL1 Copyright (c) Steve Scherf et al.
# Submitted via: CDWizzard Release:4.12
#
DISCID=7e096c0b
DTITLE=Magic Slim and the Teardrops - Gravel Road
DYEAR=1900
DGENRE=
TTITLE0=Cold Women With Warm Hearts
TTITLE1=Gravel Road
TTITLE2=Hard To Handle
TTITLE3=Bad Luck Is Fallin'
TTITLE4=Pretty Girls Everywhere
TTITLE5=Further On Up The Road
TTITLE6=Mustang Sally
TTITLE7=Prisoner Of Love
TTITLE8=Before You Accuse Me
TTITLE9=Please Don't Waste My time
TTITLE10=Slim's Hideaway
EXTD=
EXTT0=
EXTT1=
EXTT2=
EXTT3=
EXTT4=
EXTT5=
EXTT6=
EXTT7=
EXTT8=
EXTT9=
EXTT10=
PLAYORDER=
